<?xml version="1.0" encoding="utf-8"?>
<!-- Generator: Adobe Illustrator 18.1.1, SVG Export Plug-In . SVG Version: 6.00 Build 0)  -->
<!DOCTYPE svg PUBLIC "-//W3C//DTD SVG 1.1//EN" "http://www.w3.org/Graphics/SVG/1.1/DTD/svg11.dtd">
<svg version="1.1" id="Layer_1" xmlns="http://www.w3.org/2000/svg" xmlns:xlink="http://www.w3.org/1999/xlink" x="0px" y="0px"
	 viewBox="0 0 750 170.6" enable-background="new 0 0 750 170.6" xml:space="preserve">
<g>
	<path fill="#111111" d="M19.9,19.7v50.4h60.2v19.7H19.9V151H107v19.7H0V0h107v19.7H19.9z"/>
	<path fill="#111111" d="M299.8,0h19.7v170.6h-19.9v-125l-48,106.1h-20.2l-48-106.1v125h-19.9V0h19.7l58.3,128.2L299.8,0z"/>
	<path fill="#111111" d="M449,0l62.2,170.6h-21.1l-18.2-51.4h-61.4l-18.2,51.4H371L433.2,0H449z M465.1,99.8l-24-69.8l-24,69.8
		H465.1z"/>
	<path fill="#111111" d="M582.7,170.6h-19.9V0h19.9V170.6z"/>
	<path fill="#111111" d="M672.2,151H750v19.7h-97.7V0h19.9V151z"/>
</g>
</svg>
