<?xml version="1.0" encoding="utf-8"?>
<!-- Generator: Adobe Illustrator 18.1.1, SVG Export Plug-In . SVG Version: 6.00 Build 0)  -->
<!DOCTYPE svg PUBLIC "-//W3C//DTD SVG 1.1//EN" "http://www.w3.org/Graphics/SVG/1.1/DTD/svg11.dtd">
<svg version="1.1" id="Layer_1" xmlns="http://www.w3.org/2000/svg" xmlns:xlink="http://www.w3.org/1999/xlink" x="0px" y="0px"
	 viewBox="0 0 1064.8 170.6" enable-background="new 0 0 1064.8 170.6" xml:space="preserve">
<g>
	<path fill="#111111" d="M65.9,170.6H46v-151H0.7V0h111.6v19.7H65.9V170.6z"/>
	<path fill="#111111" d="M293.5,135.1L327.1,0h20.4l-43.7,170.6h-19L246.7,47.3l-38.2,123.4h-19L145.9,0h20.4l33.6,135.1L239.2,7
		h14.9L293.5,135.1z"/>
	<path fill="#111111" d="M417.8,170.6h-19.9V0h19.9V170.6z"/>
	<path fill="#111111" d="M535.9,170.6h-19.9v-151h-45.4V0h111.6v19.7h-46.3V170.6z"/>
	<path fill="#111111" d="M683.5,170.6h-19.9v-151h-45.4V0h111.6v19.7h-46.3V170.6z"/>
	<path fill="#111111" d="M802.5,19.7v50.4h60.2v19.7h-60.2V151h87.1v19.7h-107V0h107v19.7H802.5z"/>
	<path fill="#111111" d="M1017.1,0l22.3,5.8l17.8,17.8l7,24.2l-6.5,23.5l-11.8,17.3l-14.2,7.4l33.1,74.6h-22.1l-31-71h-45.8v71H946
		V0H1017.1z M965.9,79.9h52.1l14.4-7l7-10.3l4.1-14.2l-4.1-14.4l-10.3-10.3l-14.2-4.1h-49V79.9z"/>
</g>
</svg>
